<?xml version="1.0" standalone="no"?>
<!DOCTYPE svg PUBLIC "-//W3C//DTD SVG 20010904//EN"
 "http://www.w3.org/TR/2001/REC-SVG-20010904/DTD/svg10.dtd">
<svg version="1.0" xmlns="http://www.w3.org/2000/svg"
 width="200.000000pt" height="200.000000pt" viewBox="0 0 200.000000 200.000000"
 preserveAspectRatio="xMidYMid meet">

<g transform="translate(0.000000,200.000000) scale(0.100000,-0.100000)"
fill="#ffffff" stroke="none">
<path d="M310 1851 c-47 -15 -85 -39 -128 -82 -55 -56 -82 -128 -82 -219 l0
-70 249 0 250 0 88 -110 88 -109 98 -1 97 0 0 300 0 300 -317 -1 c-175 0 -329
-4 -343 -8z"/>
<path d="M1030 1561 l0 -301 98 1 97 0 88 110 88 109 250 0 249 0 0 70 c0 124
-60 227 -165 284 -38 20 -55 21 -372 24 l-333 3 0 -300z"/>
<path d="M100 1220 l0 -200 300 0 300 0 0 121 0 121 -66 79 -66 79 -234 0
-234 0 0 -200z"/>
<path d="M1366 1341 l-66 -79 0 -121 0 -121 300 0 300 0 0 200 0 200 -234 0
-234 0 -66 -79z"/>
<path d="M100 765 l0 -195 238 0 237 1 63 78 62 78 0 117 0 116 -300 0 -300 0
0 -195z"/>
<path d="M1300 844 l0 -117 63 -78 62 -78 238 -1 237 0 0 195 0 195 -300 0
-300 0 0 -116z"/>
<path d="M689 616 l-84 -105 -254 0 -253 -1 4 -87 c3 -73 9 -97 33 -142 32
-58 89 -110 151 -138 34 -16 79 -18 362 -21 l322 -3 0 300 0 301 -99 0 -99 0
-83 -104z"/>
<path d="M1030 419 l0 -300 323 3 c309 3 324 4 367 25 68 34 113 75 145 134
24 45 30 69 33 142 l4 87 -253 1 -254 0 -84 105 -83 104 -99 0 -99 0 0 -301z"/>
</g>
</svg>
